<?xml version="1.0" encoding="UTF-8"?>
<svg id="Layer_1" data-name="Layer 1" xmlns="http://www.w3.org/2000/svg" viewBox="0 0 110 75">
  <defs>
    <style>
      .cls-1 {
        fill: #b1b7bb;
      }

      .cls-1, .cls-2 {
        stroke-width: 0px;
      }

      .cls-2 {
        fill: #fff;
      }
    </style>
  </defs>
  <rect class="cls-1" x="26.52" y="15.9" width="78.11" height="44.94"/>
  <g>
    <path class="cls-1" d="m13.36,64.58l3.55,5.48,7.96-29.43c-.81.48-1.72.77-2.67.78-.02,0-.04,0-.06,0-1.69,0-3.3-.81-4.32-2.17-.17-.23-.46-.33-.67-.23-.64.31-1.33.44-2.03.48l-7.58,28.04,5.83-2.95Z"/>
    <path class="cls-1" d="m21.98,11.52c-5.38,0-9.75,4.37-9.75,9.75s4.37,9.75,9.75,9.75,9.75-4.37,9.75-9.75-4.37-9.75-9.75-9.75Z"/>
    <path class="cls-1" d="m38.51,18.67c-1.06-.76-1.45-2.15-.93-3.28.44-.96.39-2.08-.14-2.99-.53-.91-1.48-1.51-2.53-1.6-1.25-.11-2.28-1.13-2.39-2.38-.1-1.05-.7-2-1.62-2.52-.91-.53-2.03-.57-2.99-.13-1.14.53-2.52.14-3.29-.91-.62-.85-1.58-1.34-2.63-1.34s-2.11.55-2.72,1.46c-.76,1.15-2.21,1.55-3.45.96-.99-.47-2.14-.41-3.08.15-.9.55-1.49,1.5-1.56,2.56-.09,1.27-1.08,2.29-2.34,2.43-1.05.11-1.99.73-2.5,1.66-.51.92-.54,2.04-.08,3,.55,1.13.19,2.52-.86,3.3-.84.63-1.32,1.6-1.3,2.65.02,1.05.52,2,1.38,2.61,1.07.75,1.47,2.13.96,3.27-.43.97-.36,2.09.18,2.99.54.91,1.49,1.5,2.55,1.58,1.27.1,2.29,1.09,2.42,2.36.11,1.05.72,1.99,1.64,2.51.92.52,2.04.55,3,.1.35-.17.72-.25,1.1-.25.83,0,1.66.4,2.2,1.12.63.85,1.6,1.32,2.64,1.31,1.05-.01,2-.51,2.62-1.37.76-1.06,2.14-1.46,3.28-.95.96.44,2.08.38,2.99-.16.91-.54,1.5-1.49,1.59-2.54.1-1.25,1.12-2.28,2.37-2.41,1.05-.1,1.99-.71,2.51-1.63.52-.92.56-2.04.11-3-.53-1.13-.16-2.52.89-3.29.85-.63,1.33-1.59,1.33-2.64h0c0-1.04-.51-2.02-1.36-2.62Zm-16.53,14.49c-6.55,0-11.88-5.33-11.88-11.88s5.33-11.88,11.88-11.88,11.88,5.33,11.88,11.88-5.33,11.88-11.88,11.88Z"/>
    <path class="cls-1" d="m27.06,70.06l3.55-5.48,5.83,2.95-7.63-28.21c-.44-.05-.87-.15-1.28-.31l-4.43,16.37,3.97,14.69Z"/>
    <path class="cls-2" d="m39.75,16.94c-.23-.17-.33-.46-.24-.67.73-1.59.64-3.44-.24-4.95-.88-1.51-2.44-2.5-4.19-2.65-.24-.02-.44-.22-.46-.46-.16-1.74-1.16-3.3-2.68-4.17-1.51-.87-3.37-.95-4.95-.21-.21.1-.5,0-.67-.23-1.01-1.39-2.64-2.22-4.35-2.22-1.81,0-3.49.9-4.49,2.42-.17.26-.48.34-.76.21-1.64-.78-3.54-.68-5.1.25-1.5.9-2.46,2.48-2.59,4.23-.02.24-.21.44-.45.47-1.74.19-3.28,1.21-4.13,2.74-.85,1.53-.9,3.38-.13,4.96.1.21,0,.5-.22.67-1.37,1.03-2.17,2.67-2.15,4.39.03,1.71.88,3.33,2.29,4.32.23.17.34.45.24.67-.71,1.6-.6,3.45.29,4.95.89,1.5,2.47,2.48,4.21,2.61.24.02.44.22.46.45.18,1.74,1.2,3.29,2.72,4.14.26.14.53.23.81.33l.28-1.02c.15-.57.74-.9,1.31-.75.57.15.9.74.75,1.31l-.21.77c.69-.04,1.38-.18,2.03-.48.21-.1.5,0,.67.23,1.01,1.36,2.63,2.17,4.32,2.17.02,0,.04,0,.06,0,.96-.01,1.87-.3,2.67-.78l.75-2.77c.15-.57.74-.9,1.31-.75.57.15.9.74.75,1.31l-.16.59c.42.16.85.26,1.28.31l-.2-.72c-.15-.57.18-1.15.75-1.31.57-.15,1.15.18,1.31.75l.3,1.12c.41-.12.81-.29,1.18-.52,1.5-.89,2.49-2.46,2.63-4.2.02-.24.22-.44.45-.46,1.74-.17,3.3-1.18,4.16-2.7.86-1.52.93-3.37.19-4.95-.1-.21,0-.5.23-.67,1.38-1.02,2.2-2.65,2.19-4.36,0-1.71-.85-3.34-2.24-4.34Zm.11,4.35c0,1.05-.48,2.01-1.33,2.64-1.05.77-1.43,2.16-.89,3.29.45.96.41,2.08-.11,3-.52.92-1.46,1.53-2.51,1.63-1.25.12-2.27,1.16-2.37,2.41-.09,1.05-.68,2-1.59,2.54-.91.54-2.03.6-2.99.16-1.14-.52-2.52-.12-3.28.95-.61.86-1.57,1.36-2.62,1.37-1.05.01-2.01-.47-2.64-1.31-.54-.72-1.37-1.12-2.2-1.12-.37,0-.75.08-1.1.25-.96.46-2.08.42-3-.1-.92-.52-1.53-1.45-1.64-2.51-.13-1.27-1.15-2.26-2.42-2.36-1.06-.08-2.01-.67-2.55-1.58-.54-.91-.61-2.02-.18-2.99.51-1.15.1-2.52-.96-3.27-.86-.61-1.37-1.56-1.38-2.61-.02-1.05.46-2.02,1.3-2.65,1.04-.79,1.4-2.18.86-3.3-.46-.95-.43-2.07.08-3,.51-.92,1.44-1.54,2.5-1.66,1.27-.14,2.25-1.16,2.34-2.43.08-1.06.66-2.01,1.56-2.56.94-.57,2.09-.62,3.08-.15,1.24.59,2.69.19,3.45-.96.61-.92,1.62-1.46,2.72-1.46s2.01.49,2.63,1.34c.77,1.06,2.15,1.44,3.29.91.96-.45,2.08-.4,2.99.13.91.53,1.52,1.47,1.62,2.52.12,1.25,1.14,2.27,2.39,2.38,1.05.09,2,.69,2.53,1.6.53.91.58,2.03.14,2.99-.52,1.14-.13,2.52.93,3.28.84.61,1.35,1.59,1.36,2.62h0Z"/>
    <path class="cls-2" d="m21.98,9.39c-6.55,0-11.88,5.33-11.88,11.88s5.33,11.88,11.88,11.88,11.88-5.33,11.88-11.88-5.33-11.88-11.88-11.88Zm0,21.63c-5.38,0-9.75-4.37-9.75-9.75s4.37-9.75,9.75-9.75,9.75,4.37,9.75,9.75-4.37,9.75-9.75,9.75Z"/>
    <path class="cls-2" d="m21.71,54.36c.57-.15,1.15.18,1.31.75l.07.26,4.43-16.37c-.11-.04-.22-.05-.32-.1-.21-.1-.5,0-.67.24-.44.62-1.02,1.11-1.66,1.49l-7.96,29.43-3.55-5.48-5.83,2.95,7.58-28.04c-.72.04-1.44-.06-2.12-.31l-7.78,28.75c-.17.64.05,1.33.56,1.75.52.42,1.23.5,1.83.2l5-2.53,3.04,4.7c.31.49.85.77,1.42.77.09,0,.17,0,.26-.02.66-.1,1.2-.58,1.37-1.23l3.28-12.12-1.02-3.79c-.15-.57.18-1.15.75-1.31Z"/>
    <path class="cls-2" d="m26.52,39.14c.17-.23.45-.34.67-.24.1.05.22.06.32.1l.16-.59c.15-.57-.18-1.15-.75-1.31-.57-.15-1.15.18-1.31.75l-.75,2.77c.64-.38,1.21-.87,1.66-1.49Z"/>
    <path class="cls-2" d="m15.12,39.49l.21-.77c.15-.57-.18-1.15-.75-1.31-.57-.15-1.15.18-1.31.75l-.28,1.02c.69.25,1.4.35,2.12.31Z"/>
    <path class="cls-2" d="m28.8,39.31l7.63,28.21-5.83-2.95-3.55,5.48-3.97-14.69-1.1,4.08,3.28,12.12c.17.64.71,1.12,1.37,1.23.09.01.17.02.26.02.57,0,1.1-.29,1.42-.77l3.04-4.7,5,2.53c.59.3,1.31.22,1.83-.2.52-.42.74-1.11.56-1.75l-7.78-28.77c-.7.21-1.44.24-2.16.16Zm7.89,29.17h0,0Z"/>
    <path class="cls-2" d="m29.35,37.28c-.57.15-.9.74-.75,1.31l.2.72c.73.08,1.46.05,2.16-.16l-.3-1.12c-.15-.57-.74-.9-1.31-.75Z"/>
    <path class="cls-2" d="m23.01,55.11c-.15-.57-.74-.9-1.31-.75-.57.15-.9.74-.75,1.31l1.02,3.79,1.1-4.08-.07-.26Z"/>
  </g>
  <g>
    <path class="cls-2" d="m46.16,22.58c.71-.21,1.45-.34,2.54-.34,1.37,0,2.62.45,3.38,1.27.74.79,1.19,1.98,1.19,3.57,0,1.45-.29,2.38-.82,3.22-.9,1.43-2.46,2.17-4.12,2.17-.42,0-.71,0-1.03-.05v7.71h-1.14v-17.54Zm1.14,8.82c.26.05.53.08.95.08,2.14,0,3.83-1.35,3.83-4.38,0-2.01-.82-3.88-3.49-3.88-.55,0-.98.05-1.29.13v8.06Z"/>
    <path class="cls-2" d="m54.37,33.99l-1.43,6.13h-1.11l4.2-17.8h1.08l4.25,17.8h-1.16l-1.43-6.13h-4.41Zm4.15-.98l-1.14-5.02c-.32-1.37-.55-2.64-.79-4.07h-.11c-.21,1.45-.48,2.77-.77,4.09l-1.11,4.99h3.91Z"/>
    <path class="cls-2" d="m62.48,22.58c.71-.26,1.58-.34,2.4-.34,1.66,0,2.75.42,3.54,1.24.77.82,1.16,2.01,1.16,3.33,0,2.51-1.16,3.86-2.93,4.68v.05c1.37.34,2.11,1.69,2.54,4.28.45,2.72.74,3.8.95,4.31h-1.14c-.26-.55-.58-2.17-.98-4.49-.45-2.59-1.35-3.67-3.43-3.67h-.98v8.16h-1.14v-17.54Zm1.14,8.48h1c2.19,0,3.78-1.56,3.78-4.04s-.98-3.8-3.57-3.8c-.48,0-.9.03-1.21.11v7.74Z"/>
    <path class="cls-2" d="m72.88,33.99l-1.43,6.13h-1.11l4.2-17.8h1.08l4.25,17.8h-1.16l-1.43-6.13h-4.41Zm4.15-.98l-1.14-5.02c-.32-1.37-.55-2.64-.79-4.07h-.11c-.21,1.45-.48,2.77-.77,4.09l-1.11,4.99h3.91Z"/>
    <path class="cls-2" d="m80.99,22.58c.71-.26,1.45-.34,2.25-.34,1.64,0,2.83.42,3.7,1.19,1.29,1.08,2.46,3.35,2.46,7.24,0,4.36-1.03,6.37-1.93,7.5-1.11,1.4-2.8,2.03-4.57,2.03-.66,0-1.37-.03-1.9-.16v-17.46Zm1.14,16.56c.37.05.69.05.87.05,2.59,0,5.2-1.61,5.2-8.37,0-4.99-1.64-7.61-4.97-7.61-.37,0-.79.05-1.11.11v15.82Z"/>
    <path class="cls-2" d="m96.49,31.27h-4.7v7.84h5.39v1h-6.52v-17.8h6.18v1h-5.04v6.95h4.7v1Z"/>
  </g>
  <g>
    <path class="cls-2" d="m61.14,52.32l-1.52-8.9h1.79l.44,3.55c.12,1.02.2,2.03.3,3.12h.04c.12-1.1.32-2.06.5-3.13l.63-3.54h1.4l.59,3.51c.16,1,.32,1.99.42,3.15h.03c.12-1.16.22-2.11.34-3.14l.44-3.52h1.69l-1.57,8.9h-1.78l-.53-2.92c-.15-.82-.28-1.83-.4-2.92h-.03c-.16,1.07-.3,2.06-.49,2.93l-.59,2.9h-1.72Z"/>
    <path class="cls-2" d="m70.91,43.42v8.9h-1.73v-8.9h1.73Z"/>
    <path class="cls-2" d="m72.46,52.32v-8.9h1.58l1.37,3.49c.26.69.7,1.83.95,2.6h.03c-.05-.94-.17-2.48-.17-4.12v-1.97h1.52v8.9h-1.58l-1.36-3.38c-.29-.75-.7-1.87-.9-2.68h-.03c.04.9.11,2.27.11,4.05v2.01h-1.52Z"/>
    <path class="cls-2" d="m79.27,52.32v-8.9h1.58l1.37,3.49c.26.69.7,1.83.95,2.6h.03c-.05-.94-.17-2.48-.17-4.12v-1.97h1.52v8.9h-1.58l-1.36-3.38c-.29-.75-.7-1.87-.9-2.68h-.03c.04.9.11,2.27.11,4.05v2.01h-1.52Z"/>
    <path class="cls-2" d="m89.85,48.41h-2.03v2.4h2.3v1.5h-4.03v-8.9h3.87v1.5h-2.14v2.05h2.03v1.44Z"/>
    <path class="cls-2" d="m91.29,43.55c.54-.11,1.23-.17,1.89-.17.95,0,1.79.13,2.38.66.54.49.7,1.08.7,1.85,0,.95-.46,1.81-1.37,2.23v.03c.61.24.91.81,1.08,1.76.17.99.41,2.08.57,2.42h-1.81c-.11-.25-.3-1.15-.44-2.12-.16-1.11-.44-1.43-1.02-1.43h-.25v3.55h-1.73v-8.76Zm1.73,3.88h.3c.75,0,1.19-.61,1.19-1.39s-.3-1.29-1.08-1.32c-.14,0-.32.01-.41.05v2.65Z"/>
  </g>
</svg>